<?xml version="1.0" encoding="UTF-8" standalone="no"?>
<svg
   xmlns:dc="http://purl.org/dc/elements/1.1/"
   xmlns:cc="http://creativecommons.org/ns#"
   xmlns:rdf="http://www.w3.org/1999/02/22-rdf-syntax-ns#"
   xmlns:svg="http://www.w3.org/2000/svg"
   xmlns="http://www.w3.org/2000/svg"
   viewBox="0 0 1246.876 1250.753"
   height="1250.7531"
   width="1246.876"
   id="svg2"
   version="1.1">
  <metadata
     id="metadata8">
    <rdf:RDF>
      <cc:Work
         rdf:about="">
        <dc:format>image/svg+xml</dc:format>
        <dc:type
           rdf:resource="http://purl.org/dc/dcmitype/StillImage" />
        <dc:title></dc:title>
      </cc:Work>
    </rdf:RDF>
  </metadata>
  <defs
     id="defs6" />
  <g
     id="g10">
    <circle
       r="0"
       style="opacity:1;fill:#ffff00;fill-opacity:1;stroke:none;stroke-width:1.94917"
       id="circle908"
       cx="639.35724"
       cy="637.39557" />
    <circle
       r="0"
       cy="637.39557"
       cx="639.35724"
       id="circle947"
       style="opacity:1;fill:#00ff00;fill-opacity:1;stroke:none;stroke-width:1.87333" />
    <g
       transform="matrix(1.4195828,0,0,1.4195828,9.3405569,6.1243822)"
       id="g887"
       style="opacity:1;stop-opacity:1" />
    <g
       transform="translate(-15.863464,-12.146301)"
       id="g1243">
      <g
         id="g872">
        <ellipse
           style="fill:#000000;fill-opacity:1;stroke:none;stroke-width:2.8724"
           id="ellipse862"
           cx="639.30133"
           cy="637.52271"
           rx="623.43787"
           ry="625.3764" />
        <circle
           r="502.45187"
           cy="637.39557"
           cx="640.6496"
           id="circle892"
           style="opacity:1;fill:#39373c;fill-opacity:1;stroke:none;stroke-width:1.59184" />
        <g
           id="g906">
          <path
             id="rect868"
             style="opacity:1;fill:#ffffff;fill-opacity:1;stroke:none;stroke-width:5.34633;stop-opacity:1"
             d="M 613.39062,56.228516 V 107.66211 A 528.78687,530.37575 0 0 0 111.30469,610.13672 H 59.482422 v 54.51758 h 51.822268 a 528.78687,530.37575 0 0 0 502.08593,502.4746 v 51.4336 h 54.51954 V 1166.998 A 528.78687,530.37575 0 0 0 1167.4785,664.6543 h 54.3379 v -54.51758 h -54.3379 A 528.78687,530.37575 0 0 0 667.91016,107.79102 V 56.228516 Z m 0,104.816404 v 25.1836 h 54.51954 V 161.18945 A 475.63684,477.06601 0 0 1 1114.25,610.13672 h -22.4336 v 54.51758 h 22.4356 a 475.63684,477.06601 0 0 1 -446.34184,448.9473 v -25.0391 h -54.51954 v 25.1855 A 475.63684,477.06601 0 0 1 164.5332,664.6543 h 24.94922 V 610.13672 H 164.5332 a 475.63684,477.06601 0 0 1 448.85742,-449.0918 z" />
        </g>
        <path
           id="ellipse860"
           style="fill:#ffffff;fill-opacity:1;stroke:none;stroke-width:2.8339"
           d="M 637.96875,20.53125 A 615.07983,616.99237 0 0 0 24.220703,637.52344 615.07983,616.99237 0 0 0 639.30078,1254.5156 615.07983,616.99237 0 0 0 1254.3809,637.52344 615.07983,616.99237 0 0 0 639.30078,20.53125 a 615.07983,616.99237 0 0 0 -1.33203,0 z m 1.0332,25.007812 a 590.14874,591.9837 0 0 1 0.29883,0 A 590.14874,591.9837 0 0 1 1229.4492,637.52344 590.14874,591.9837 0 0 1 639.30078,1229.5059 590.14874,591.9837 0 0 1 49.152344,637.52344 590.14874,591.9837 0 0 1 639.00195,45.539062 Z" />
      </g>
      <g
         id="g1205">
        <g
           id="g896">
          <path
             style="fill:#ffffff;stroke:none;stroke-width:1px;stroke-linecap:butt;stroke-linejoin:miter;stroke-opacity:1"
             d="m 480.96875,388.2168 385.4032,458.06324 2.62333,44.4186 -73.12206,-3.75273 -385.38494,-458.1256 -6.45704,-38.08213 z"
             id="path881" />
          <g
             id="g862">
            <path
               id="path850"
               style="fill:#77747b;fill-opacity:1;stroke:none;stroke-width:1px;stroke-linecap:butt;stroke-linejoin:miter;stroke-opacity:1"
               d="m 638.37305,297.52344 -293.8086,169.28711 2.08789,338.74023 294.36524,170.7207 292.30273,-168.60937 -90.96437,-227.7147 z" />
            <path
               style="fill:#cbc9ce;fill-opacity:1;stroke:none;stroke-width:1px;stroke-linecap:butt;stroke-linejoin:miter;stroke-opacity:1"
               d="M 638.37361,297.52417 932.30232,467.16987 933.32103,807.6619 700.15556,879.44908 480.59292,573.23589 Z"
               id="path842" />
            <path
               id="path849"
               d="M 842.35594,579.94741 639.3324,357.92787 480.59292,573.23589 492.38845,727.88895 700.15556,879.44908 856.61792,770.26913 Z"
               style="fill:#a8a5ac;fill-opacity:1;stroke:none;stroke-width:1px;stroke-linecap:butt;stroke-linejoin:miter;stroke-opacity:1" />
            <path
               id="path847"
               d="M 842.35594,579.94741 933.32103,807.6619 700.15556,879.44908 Z"
               style="fill:#b6b3ba;fill-opacity:1;stroke:none;stroke-width:1px;stroke-linecap:butt;stroke-linejoin:miter;stroke-opacity:1" />
            <path
               id="path857"
               d="M 346.65254,805.55085 480.59292,573.23589 700.15556,879.44908 Z"
               style="fill:#838288;fill-opacity:1;stroke:none;stroke-width:1px;stroke-linecap:butt;stroke-linejoin:miter;stroke-opacity:1" />
            <path
               style="fill:#848389;fill-opacity:1;stroke:none;stroke-width:1px;stroke-linecap:butt;stroke-linejoin:miter;stroke-opacity:1"
               d="M 641.01695,976.27119 700.15556,879.44908 933.32103,807.6619 Z"
               id="path840" />
            <path
               id="path859"
               d="M 860.39316,476.75776 842.35594,579.94741 480.59292,573.23589 467.28972,458.18123 638.37361,297.52417 Z"
               style="fill:#b8b6bb;fill-opacity:1;stroke:none;stroke-width:1px;stroke-linecap:butt;stroke-linejoin:miter;stroke-opacity:1" />
            <path
               id="path845"
               d="M 932.30232,467.16987 842.35594,579.94741 638.37361,297.52417"
               style="fill:#d7d5da;fill-opacity:1;stroke:none;stroke-width:1px;stroke-linecap:butt;stroke-linejoin:miter;stroke-opacity:1" />
            <path
               id="path851"
               d="M 344.56475,466.81033 480.59292,573.23589 638.37361,297.52417"
               style="fill:#939298;fill-opacity:1;stroke:none;stroke-width:1px;stroke-linecap:butt;stroke-linejoin:miter;stroke-opacity:1" />
          </g>
          <path
             id="path852"
             style="fill:#ffffff;stroke:none;stroke-width:1px;stroke-linecap:butt;stroke-linejoin:miter;stroke-opacity:1"
             d="m 314.5293,336.91211 c -1.49362,0.0105 -2.98716,0.0437 -4.48047,0.10156 -9.50108,0.36835 -19.04791,1.74995 -27.92578,5.1543 -8.18034,3.13688 -15.70243,7.98182 -21.93164,14.14258 -9.58727,9.48191 -15.92244,21.83053 -20.19141,34.62109 -5.63944,16.89672 -7.90489,34.81461 -7.75391,52.62695 0.28492,33.61448 9.06067,66.67972 21.17383,98.03711 17.84905,46.20594 42.94638,89.32837 70.95117,130.18555 23.79653,34.7176 49.74805,67.93222 77.11133,99.91406 22.7208,26.55577 46.41485,52.26454 70.55078,77.54102 30.85638,32.31451 62.46971,63.95461 95.9336,93.56055 22.36819,19.78943 45.54994,38.65867 69.46875,56.54296 l -13.41407,13.90036 77.25977,36.5723 -38.2793,-76.9668 -14.69726,15.23047 C 626.12429,964.24809 604.35314,940.03844 583.00391,915.46289 560.21508,889.23019 537.9056,862.57848 516.24805,835.4043 475.08662,783.75821 436.22776,730.14371 402.69141,673.25 389.73214,651.26487 377.57919,628.8094 365.97461,606.08008 353.5106,581.66744 341.62042,556.79149 333.98242,530.4668 c -2.85603,-9.84345 -5.11078,-19.8886 -6.14258,-30.08594 -0.77408,-7.65028 -0.85429,-15.39875 0.25391,-23.00781 1.57546,-10.81733 5.66516,-21.42466 12.75391,-29.7461 6.69131,-7.85488 15.85098,-13.4207 25.67773,-16.56836 9.49028,-3.03988 19.57371,-3.89764 29.5332,-3.55859 4.82965,0.16442 9.65041,0.60548 14.42969,1.32031 l 70.48047,-40.60351 c -23.31395,-12.11413 -47.44327,-22.65696 -72.17187,-31.53321 -20.52013,-7.36563 -41.5154,-13.5986 -63.03321,-17.10742 -10.32469,-1.6836 -20.77903,-2.73729 -31.23437,-2.66406 z" />
          <path
             d="m 962.12339,938.15583 c 1.49362,-0.01 2.98716,-0.044 4.48047,-0.1015 9.50108,-0.3684 19.04791,-1.75 27.92578,-5.1543 8.18026,-3.1369 15.70236,-7.9819 21.93156,-14.1426 9.5873,-9.4819 15.9225,-21.8306 20.1914,-34.62112 5.6395,-16.89672 7.9049,-34.81461 7.7539,-52.62695 -0.2849,-33.61448 -9.0606,-66.67972 -21.1738,-98.03711 -17.849,-46.20594 -42.94631,-89.32837 -70.9511,-130.18555 -23.79653,-34.7176 -49.74805,-67.93222 -77.11133,-99.91406 -22.7208,-26.55577 -46.41485,-52.26454 -70.55078,-77.54102 -30.85638,-32.31451 -62.46971,-63.95461 -95.9336,-93.56055 -22.36819,-19.78943 -45.54994,-38.65867 -69.46875,-56.54296 l 13.41407,-13.90036 -77.25977,-36.5723 38.2793,76.9668 14.69726,-15.23047 c 22.1804,23.82808 43.95155,48.03773 65.30078,72.61328 22.78883,26.2327 45.09831,52.88441 66.75586,80.05859 41.16143,51.64609 80.02029,105.26059 113.55664,162.1543 12.95927,21.98513 25.11222,44.4406 36.7168,67.16992 12.46401,24.41264 24.35419,49.28859 31.99219,75.61328 2.85603,9.84345 5.11078,19.8886 6.14258,30.08594 0.77408,7.65028 0.85429,15.39875 -0.25391,23.00781 -1.57546,10.81733 -5.66516,21.42466 -12.75391,29.7461 -6.69131,7.85488 -15.85098,13.4207 -25.67773,16.56836 -9.49028,3.03988 -19.57371,3.89764 -29.5332,3.55859 -4.82965,-0.16442 -9.44287,-0.57308 -14.22215,-1.28791 l -70.49873,40.66587 c 23.31395,12.11418 47.25399,22.56222 71.98259,31.43842 20.52013,7.3657 41.5154,13.5986 63.03321,17.1075 10.32469,1.6836 20.77903,2.7372 31.23437,2.664 z"
             style="fill:#ffffff;stroke:none;stroke-width:1px;stroke-linecap:butt;stroke-linejoin:miter;stroke-opacity:1"
             id="path875" />
        </g>
        <g
           id="g1174">
          <path
             id="path963"
             style="fill:#ffffff;stroke:none;stroke-width:1.1083;stroke-miterlimit:4;stroke-dasharray:none"
             d="m 642.40626,408.03321 c -0.0469,-0.012 -0.085,-0.0103 -0.11328,0.006 -0.71652,0.4096 -4.79493,5.70476 -6.74415,8.75586 -7.01631,10.98265 -12.62808,29.39763 -14.00585,45.96875 -0.3267,3.92914 -0.40756,39.85409 -0.32227,136.72265 l 0.11719,132.72266 c -0.0661,-0.0275 -0.87097,-0.39453 -0.87696,-0.39453 -0.10302,0 -19.79699,15.40332 -21.4082,16.74414 -0.29906,0.24922 0.94622,0.25586 43.42774,0.25586 42.38192,0 43.72413,-0.007 43.42578,-0.25391 -1.6734,-1.38383 -21.30338,-16.74609 -21.39844,-16.74609 -0.006,0 -0.84134,0.38043 -0.91211,0.41015 v -135.7539 c 0,-128.05372 -0.0344,-134.64343 -0.70117,-139.21289 -2.44328,-16.74333 -7.6924,-31.90701 -14.57813,-42.10352 -2.48338,-3.67744 -5.20655,-6.94075 -5.91015,-7.12109 z" />
          <path
             id="rect973"
             style="fill:#000000;stroke:none;stroke-width:4.54644;stroke-miterlimit:4;stroke-dasharray:none"
             d="m 642.57812,406.05273 -0.96289,1.04883 c -2.80053,3.12289 -5.28624,6.52615 -7.4082,10.14453 -3.02937,5.16575 -5.29192,10.71996 -7.15234,16.35547 -4.32507,13.10136 -6.55212,26.89072 -6.57031,40.6875 V 498.75 521.56055 c -0.26482,-1.562 -0.52403,-3.12494 -0.79688,-4.68555 -0.59082,-3.37932 -1.21048,-6.77311 -2.375,-10 -1.11866,-3.0998 -2.73499,-6.01734 -4.75,-8.625 -3.13302,-4.0545 -7.1934,-7.32311 -11.5625,-10 -4.70794,-2.88449 -9.81263,-5.12043 -15.125,-6.625 -0.50687,1.77377 -0.94481,3.56724 -1.3125,5.375 -1.01147,4.97291 -1.48944,10.05027 -1.5,15.125 -0.01,4.56525 0.37055,9.18976 1.875,13.5 1.30187,3.72983 3.41242,7.12782 5.75,10.3125 3.73206,5.08451 8.07413,9.69916 12.6875,14 5.34384,4.98183 11.0754,9.5432 17.10938,13.66211 v 21.375 c -2.5807,-1.40545 -5.16308,-2.80547 -7.73438,-4.22461 -4.60014,-2.5389 -9.16716,-5.15282 -13.5,-8.125 -3.50131,-2.40178 -6.84428,-5.03437 -10,-7.875 -0.36493,4.36444 -0.53182,8.74544 -0.5,13.125 0.0404,5.55903 0.4109,11.17279 2,16.5 0.94655,3.17317 2.32295,6.22195 4.125,9 1.82938,2.8202 4.08915,5.35137 6.60742,7.57812 3.46409,3.0631 7.39552,5.54135 11.22656,8.13086 2.61648,1.76856 5.19547,3.58851 7.7754,5.41016 v 25.50195 c -0.2451,-0.12298 -0.48921,-0.24835 -0.73438,-0.37109 -7.80256,-3.90608 -15.66128,-7.73001 -23.125,-12.25 -3.7968,-2.29932 -7.48675,-4.77675 -11.05273,-7.41992 -1.49008,8.61452 -0.33384,17.66839 3.27148,25.63281 3.58404,7.91741 9.44443,14.61064 15.91016,20.41797 4.89009,4.39214 10.1682,8.33479 15.73047,11.83594 v 52.89843 l -21.32813,15.61524 h -0.004 c -0.64562,0.4355 -1.15513,1.04476 -1.47265,1.75586 -0.0465,0.1042 -0.0774,0.21142 -0.084,0.32617 -0.0697,1.21759 0.72607,2.06198 1.13477,2.48047 0.40193,0.41155 0.83832,0.78818 1.30469,1.125 L 620.3125,765.5 v 28.61719 l -10.75977,7.61133 c -2.40653,1.93792 -2.76048,3.04344 -3.08593,6.61914 -0.32545,3.5757 -0.84317,9.84167 -0.97852,13.00586 -0.13535,3.16419 -0.11057,3.44602 0.0801,3.74804 0.19057,0.30202 0.54575,0.62539 1.16602,0.4375 0.62026,-0.18789 1.7282,-1.10719 4.52148,-3.37109 2.56065,-2.07536 6.54255,-5.3186 9.05664,-7.36719 v 31.5625 c 0,0.72284 6.7e-4,1.44427 -0.63281,1.80469 -0.63347,0.36042 -1.9011,0.35937 -2.85547,0.35937 h -2.52149 c -0.9244,0 -2.13183,5.8e-4 -2.73632,0.63086 -0.60448,0.63028 -0.60352,1.8892 -0.60352,3.95899 v 6.71093 c 0,1.76042 -10e-4,2.4008 0.3418,2.72071 0.34301,0.31991 1.02889,0.32031 1.71289,0.32031 h 57.96484 c 0.684,0 1.36793,-4e-4 1.71094,-0.32031 0.34301,-0.31991 0.34375,-0.96024 0.34375,-2.72071 v -6.71093 c 0,-2.06979 -9.9e-4,-3.32871 -0.60547,-3.95899 -0.60449,-0.63028 -1.81193,-0.63086 -2.73633,-0.63086 h -2.51953 c -0.95437,0 -2.222,10e-4 -2.85547,-0.35937 -0.63348,-0.36042 -0.63476,-1.08185 -0.63476,-1.80469 v -57.35351 c 3.46437,-6.97274 4.75923,-9.36618 8.95312,-15.58204 5.05627,-6.51131 5.57663,-6.54822 7.71094,-9.42578 2.1343,-2.87755 3.72038,-5.1263 4.98828,-7.01172 1.2679,-1.88541 2.21852,-3.40732 2.54102,-4.77148 0.3225,-1.36415 0.0157,-2.57173 -0.29102,-3.78125 0.51254,-1.2672 1.11002,-2.50004 1.78711,-3.6875 1.88496,-3.30578 4.38871,-6.25178 7.3125,-8.6875 3.93334,-3.27674 8.55528,-5.59479 13.07031,-8.00781 5.41313,-2.89301 10.78302,-5.9988 15.29102,-10.16407 5.64175,-5.2128 9.75738,-11.96008 12.375,-19.18164 2.20015,-6.06984 3.37346,-12.47836 3.88867,-18.91406 0.48275,-6.03023 0.39533,-12.10562 -0.26367,-18.11914 -0.87541,1.62094 -1.80508,3.2116 -2.78516,4.77149 -3.76054,5.98528 -8.27212,11.48525 -13.26367,16.49023 -4.87147,4.88458 -10.19286,9.29856 -15.15234,14.09375 -6.57979,6.36181 -12.51276,13.39153 -17.67774,20.94727 0.58552,-2.89684 1.05726,-5.8162 1.41406,-8.75 0.41737,-3.43174 0.67724,-6.88491 0.70704,-10.3418 0.0302,-3.50443 -0.17642,-7.01276 0.0215,-10.51172 0.0948,-1.67532 0.28686,-3.36595 0.875,-4.9375 0.84953,-2.27004 2.47395,-4.16079 4.1875,-5.875 1.9925,-1.99327 4.14712,-3.8183 6.14062,-5.81055 2.72812,-2.72638 5.14273,-5.75511 7.33594,-8.92773 6.50099,-9.4041 11.07073,-20.13129 13.39844,-31.32422 1.4085,-6.77285 2.00321,-13.70843 1.875,-20.625 -0.14054,-7.58149 -1.14921,-15.14654 -3,-22.5 -2.18032,4.58114 -4.60145,9.04767 -7.25,13.375 -2.69721,4.40682 -5.62812,8.66623 -8.625,12.875 -3.82894,5.37731 -7.77528,10.6868 -11.125,16.375 -4.31279,7.32362 -7.60961,15.24566 -9.76562,23.4668 -2.79768,-5.98442 -5.39819,-12.0616 -7.79688,-18.2168 -1.0913,-2.80036 -2.14164,-5.61969 -3,-8.5 -0.48478,-1.62673 -0.91159,-3.30547 -0.8125,-5 0.1099,-1.87931 0.85813,-3.65576 1.625,-5.375 3.96285,-8.88427 8.70315,-17.39737 13,-26.125 3.31071,-6.72461 6.37306,-13.6184 8.25,-20.875 1.67194,-6.46404 2.38318,-13.14268 2.6875,-19.8125 0.3828,-8.38966 0.12993,-16.79597 -0.33203,-25.18164 -0.54003,-9.80289 -1.36519,-19.59083 -2.47461,-29.3457 -2.30299,3.47057 -4.51463,7.00233 -6.63086,10.58984 -5.62632,9.53791 -10.57376,19.45737 -15.5,29.375 -2.05806,4.14333 -4.11703,8.29647 -5.75,12.625 -2.12388,5.62978 -3.51305,11.52821 -4.25,17.5 -1.35596,10.98778 -0.50838,22.12562 0.75,33.125 0.75055,6.56047 1.64668,13.10428 2.6875,19.625 -1.82212,-3.32125 -3.88136,-6.50999 -6.14062,-9.55078 V 498.75 474.28906 c -0.0182,-13.79678 -2.24525,-27.58614 -6.57032,-40.6875 -1.86042,-5.63551 -4.12297,-11.18972 -7.15234,-16.35547 -2.12196,-3.61838 -4.60767,-7.02164 -7.4082,-10.14453 z m -0.17187,3.47071 v 178.59961 c -0.83847,-0.59073 -1.67954,-1.17784 -2.53125,-1.74805 -5.54774,-3.71417 -11.36304,-6.99716 -17.2207,-10.20703 V 498.75 v -24.45898 -0.002 c 0.0181,-13.56455 2.20866,-27.12701 6.46093,-40.00781 1.82916,-5.54085 4.03843,-10.95063 6.96289,-15.9375 1.83333,-3.12618 3.9653,-6.07241 6.32813,-8.82031 z M 622.6543,616.01172 c 1.16145,0.81551 2.31724,1.63976 3.48828,2.4414 2.59086,1.7736 5.21713,3.50224 7.95508,5.03907 0.96558,0.54199 1.94571,1.05988 2.96093,1.50195 1.70606,0.74289 3.50923,1.25148 5.34766,1.53711 v 26.8457 c -2.58103,-2.04672 -5.24758,-3.98289 -8.03125,-5.75195 -3.77685,-2.40025 -7.72995,-4.50447 -11.7207,-6.5332 z m 42.01758,16.50781 c 5.51554,8.46664 10.44014,17.31899 14.70312,26.48047 1.77185,3.80785 3.43787,7.68662 4.5,11.75 0.45609,1.74487 0.79951,3.52018 1,5.3125 0.3899,3.48559 0.23698,7.01654 -0.21875,10.49414 -0.27568,2.10363 -0.66187,4.19264 -1.15625,6.25586 -0.71423,-3.54657 -1.69713,-7.039 -2.9375,-10.4375 -0.88095,-2.41372 -1.89087,-4.77837 -2.9375,-7.125 -0.71101,-1.59414 -1.44753,-3.20857 -1.6875,-4.9375 -0.0949,-0.68351 -0.11014,-1.38128 0,-2.0625 0.12117,-0.74948 0.39096,-1.46526 0.625,-2.1875 0.69775,-2.15325 1.08696,-4.44924 0.75,-6.6875 -0.43106,-2.86325 -2.06304,-5.48933 -4.3125,-7.3125 -2.0709,-1.67845 -4.71072,-2.7114 -7.375,-2.625 -0.31881,0.0103 -0.63649,0.0429 -0.95312,0.0859 z m 0,40.36719 c 0.45582,0.14818 0.91835,0.27588 1.39062,0.36328 1.06975,0.19798 2.1682,0.24023 3.25,0.125 1.34247,2.72733 2.31258,5.63765 2.875,8.625 0.31828,1.69058 0.50652,3.40563 0.5625,5.125 -2.54781,-3.75801 -5.2525,-7.40709 -8.07812,-10.96094 z m -42.01758,6.28906 c 5.5826,3.35445 11.4313,6.27533 17.45508,8.75 0.76215,0.31311 1.53066,0.61082 2.29687,0.91406 v 50.72461 l -19.75195,-8.3457 z m 42.01758,22.9707 c 1.86917,2.40656 3.28051,5.16367 4.25195,8.05469 1.89822,5.64917 2.12764,11.72439 1.85547,17.67774 -0.1058,2.31421 -0.30294,4.62286 -0.55469,6.92578 l -5.55273,-4.06446 z m -43.4668,30.81641 20.95117,8.85156 c -10e-6,0 0.277,0.10547 0.42187,0.10547 0.14491,0 0.4219,-0.10547 0.42188,-0.10547 l 20.95117,-8.85156 20.83789,15.19336 c 0.11485,0.077 0.21459,0.17945 0.3125,0.28125 h -85.04687 c 0.0979,-0.1018 0.19765,-0.20425 0.3125,-0.28125 z" />
          <g
             style="opacity:1;stroke:#000000"
             id="g909">
            <path
               id="path1216"
               style="fill:#ffffff;stroke:#000000;stroke-width:1.2;stroke-linecap:butt;stroke-linejoin:round;stroke-miterlimit:4;stroke-dasharray:none;stroke-opacity:1"
               d="m 658.52734,817.75388 c 0.17094,0.12301 0.31495,0.2848 0.41016,0.47266 0.10229,0.20184 0.14673,0.42997 0.14844,0.65625 0.003,0.4584 -0.16354,0.90303 -0.38448,1.30469 -0.18947,0.34446 -0.41992,0.66587 -0.67969,0.96094 -0.37361,0.42437 -0.80849,0.79472 -1.28694,1.09597 L 631.375,838.375 c 2.28392,-0.66043 4.56173,-1.34195 6.83306,-2.04445 2.88861,-0.89342 5.76663,-1.82075 8.63997,-2.76214 1.91219,-0.62649 3.83033,-1.26126 5.81153,-1.61309 0.9128,-0.1621 1.83618,-0.26349 2.76213,-0.30936 0.21446,-0.0106 0.42987,-0.0182 0.64353,0.003 0.21366,0.0213 0.42664,0.0725 0.61601,0.17372 0.28766,0.15373 0.50984,0.42175 0.61872,0.7292 0.13074,0.36915 0.0992,0.78464 -0.0442,1.14905 -0.17118,0.43494 -0.48859,0.79493 -0.81759,1.12695 -0.92071,0.92917 -1.97576,1.7128 -3.03191,2.48456 -2.77433,2.02729 -5.58888,4.00065 -8.46875,5.875 -1.30745,0.85095 -2.63441,1.68473 -4.0625,2.3125 -1.67542,0.73649 -3.46942,1.17922 -5.28125,1.4375 -1.36522,0.19461 -2.74763,0.28623 -4.125,0.21875 -1.05858,-0.0519 -2.11854,-0.19912 -3.125,-0.53125 -0.88047,-0.29056 -1.72504,-0.72952 -2.39063,-1.375 -0.35086,-0.34026 -0.65071,-0.73848 -0.84375,-1.1875 -0.1619,-0.3766 -0.2468,-0.78611 -0.24795,-1.19603 V 820.2318 c -0.002,-0.59138 0.0875,-1.18293 0.26358,-1.74749 0.32683,-1.04786 0.94699,-1.98664 1.6875,-2.79687 0.62562,-0.68453 1.33836,-1.28452 2.07812,-1.84375 0.60293,-0.45579 1.22512,-0.8858 1.85938,-1.29688 0.98932,-0.64119 2.00883,-1.23679 3.0625,-1.76562 1.65218,-0.82922 3.38268,-1.49163 5.125,-2.10938 2.19698,-0.77895 4.41812,-1.48926 6.65625,-2.14062 1.91679,-0.55784 3.84683,-1.07265 5.79687,-1.5 2.29028,-0.50191 4.60708,-0.88283 6.9375,-1.14063 0.14896,-0.0147 0.30333,0.0397 0.41016,0.14453 0.0937,0.0919 0.1493,0.21814 0.17009,0.34772 0.0254,0.15856 10e-4,0.32234 -0.0512,0.47418 -0.0523,0.15183 -0.1318,0.29288 -0.21834,0.42816 -0.27078,0.42328 -0.61549,0.79913 -1.01384,1.10541 l -22.93037,17.49929 22.61788,-6.3586 c 0.411,-0.10989 0.86952,-0.0259 1.21484,0.22263 z" />
            <path
               style="fill:#ffffff;stroke:#000000;stroke-width:1.2;stroke-linecap:butt;stroke-linejoin:miter;stroke-miterlimit:4;stroke-dasharray:none;stroke-opacity:1"
               d="m 624.86142,772.17165 c -0.0205,-1.10323 0.32612,-2.2102 0.97227,-3.10464 0.74647,-1.03331 1.85232,-1.75422 3.00521,-2.2981 1.5355,-0.72437 3.18379,-1.17193 4.81716,-1.63518 4.94127,-1.40142 9.83118,-2.97778 14.76086,-4.41944 0.60568,-0.17713 1.21269,-0.35241 1.83055,-0.48073 0.38201,-0.0793 0.78625,-0.1394 1.15625,-0.0156 0.28524,0.0954 0.53514,0.30471 0.65878,0.57891 0.0984,0.21827 0.11481,0.46779 0.075,0.70389 -0.0398,0.2361 -0.13338,0.46028 -0.24687,0.67111 -0.27503,0.51091 -0.66722,0.95038 -1.09375,1.34375 -0.5879,0.5422 -1.24455,1.00397 -1.90625,1.45313 -3.14386,2.13406 -6.44706,4.02074 -9.71875,5.95312 -2.94664,1.7404 -5.87094,3.51986 -8.85937,5.1875 -0.73565,0.41052 -1.48044,0.81655 -2.28125,1.07813 -0.50342,0.16444 -1.0395,0.27079 -1.5625,0.1875 -0.34017,-0.0542 -0.66926,-0.19016 -0.9375,-0.40625 -0.40974,-0.33008 -0.66208,-0.84756 -0.66983,-1.37366 z"
               id="path903" />
            <path
               style="fill:#ffffff;stroke:#000000;stroke-width:1.2;stroke-linecap:butt;stroke-linejoin:miter;stroke-miterlimit:4;stroke-dasharray:none;stroke-opacity:1"
               d="m 624.86142,788.65234 c 0.006,0.5626 0.20028,1.12162 0.54483,1.56641 0.42206,0.54486 1.06673,0.90971 1.75,1 0.5239,0.0692 1.05943,-0.0173 1.5612,-0.18314 0.50176,-0.16581 0.97404,-0.40908 1.4388,-0.66061 2.63995,-1.42874 5.14047,-3.09902 7.6875,-4.6875 l 18.92587,-11.80332 c 0.66105,-0.41227 1.31227,-0.85986 1.81732,-1.45305 0.17988,-0.21127 0.34317,-0.43992 0.45225,-0.69505 0.10909,-0.25513 0.16191,-0.53911 0.11691,-0.81291 -0.038,-0.23088 -0.14562,-0.44949 -0.30372,-0.62197 -0.15809,-0.17248 -0.36584,-0.29848 -0.59121,-0.36135 -0.28609,-0.0798 -0.59066,-0.0583 -0.88388,-0.011 -0.83269,0.13435 -1.62991,0.42931 -2.43979,0.66495 l -23.00501,6.69335 c -1.13923,0.33146 -2.29567,0.62513 -3.38085,1.10483 -0.55917,0.24718 -1.09411,0.54978 -1.59099,0.90598 -0.47191,0.3383 -0.91218,0.72797 -1.25954,1.19325 -0.56344,0.75471 -0.86428,1.70167 -0.83969,2.64319 z"
               id="path915" />
            <path
               id="path904"
               d="m 680.79796,758.75757 c -0.53287,0.0806 -1.06282,0.18047 -1.58845,0.29945 -1.1907,0.26952 -2.35791,0.63663 -3.50272,1.06066 -0.49549,0.18353 -0.98794,0.37819 -1.45841,0.61872 -0.8274,0.42302 -1.57696,0.9828 -2.29809,1.56889 -2.01091,1.63433 -3.82926,3.48922 -5.70105,5.2812 -6.98198,6.68427 -14.75658,12.53117 -23.06177,17.476 -3.57492,2.12847 -7.24619,4.08977 -10.875,6.125 -2.2044,1.23635 -4.39374,2.50032 -6.625,3.6875 -1.08508,0.57734 -2.18067,1.13685 -3.23466,1.76917 -0.37501,0.22498 -0.74464,0.45912 -1.10485,0.70711 -0.53101,0.36558 -1.04269,0.76234 -1.50011,1.21664 -0.71989,0.71499 -1.29395,1.56033 -1.8789,2.38936 -0.89229,1.26461 -1.83589,2.53407 -2.2971,4.01147 -0.1984,0.63553 -0.30327,1.30404 -0.26563,1.96875 0.0333,0.58723 0.18211,1.177 0.5,1.67187 0.24101,0.3752 0.5895,0.6967 1.01563,0.82813 0.44567,0.13746 0.93123,0.0565 1.37278,-0.0937 0.80287,-0.27305 1.51161,-0.76226 2.20534,-1.25001 0.75186,-0.52862 1.49991,-1.06262 2.25,-1.59375 6.52459,-4.61997 13.20132,-9.02089 19.90625,-13.37499 6.42083,-4.16962 12.88471,-8.30865 18.81786,-13.1471 4.31147,-3.51598 8.32065,-7.38354 12.40089,-11.1654 2.19804,-2.0373 4.42397,-4.05698 6.3814,-6.32644 0.47205,-0.5473 0.9295,-1.11072 1.30615,-1.72756 0.11702,-0.19164 0.22677,-0.38977 0.29572,-0.60346 0.069,-0.2137 0.0956,-0.44524 0.0445,-0.6639 -0.053,-0.2269 -0.19091,-0.43297 -0.38065,-0.56821 -0.20696,-0.14751 -0.47367,-0.20842 -0.72414,-0.16539 z"
               style="opacity:1;fill:#ffffff;stroke:#000000;stroke-width:1.2;stroke-linecap:butt;stroke-linejoin:miter;stroke-miterlimit:4;stroke-dasharray:none;stroke-opacity:1" />
          </g>
          <path
             style="fill:#000000;stroke:none;stroke-width:1px;stroke-linecap:butt;stroke-linejoin:miter;stroke-opacity:1"
             d="m 683.55129,646.47237 c 0.68866,-2.4018 1.26403,-4.83608 1.72357,-7.29204 0.54303,-2.90217 0.92395,-5.8318 1.37002,-8.75044 0.15913,-1.04122 0.32693,-2.08482 0.35355,-3.13779 0.0185,-0.73074 -0.0331,-1.47234 -0.26516,-2.16551 -0.25994,-0.7766 -0.73389,-1.45961 -1.14905,-2.16552 -1.51068,-2.56863 -2.28225,-5.63108 -1.81196,-8.57367 0.37673,-2.35723 1.54999,-4.57646 3.27037,-6.23138 2.5551,-2.45787 6.3401,-3.59497 9.8111,-2.87262 3.28212,0.68304 6.14833,2.96828 7.73398,5.92202 0.91715,1.70847 1.43079,3.64024 1.42071,5.5793 -0.0101,1.93905 -0.55099,3.88098 -1.59748,5.51344 -0.91807,1.43213 -2.21927,2.61614 -3.73144,3.39537 -1.51217,0.77923 -3.23154,1.15174 -4.93062,1.06824 0.0219,1.1819 -0.0521,2.36556 -0.22097,3.53554 -0.14117,0.97817 -0.34828,1.94542 -0.53033,2.91681 -0.81515,4.34959 -1.12724,8.79324 -0.92808,13.21406 l -5.56866,10.83563 z"
             id="path1044" />
          <path
             id="path1112"
             style="fill:#ffffff;stroke:none;stroke-width:1px;stroke-linecap:butt;stroke-linejoin:miter;stroke-opacity:1"
             d="m 721.29311,600.55463 c -2.7788,4.42878 -5.67048,8.78668 -8.66811,13.07037 -3.70496,5.29447 -7.57265,10.47695 -11.125,15.875 -2.28016,3.46486 -4.43184,7.0219 -6.25,10.75 -3.21698,6.59636 -5.37018,13.7101 -6.35122,20.98323 -1.89129,-4.08295 -3.68915,-8.20918 -5.39169,-12.37437 -2.0087,-4.91419 -3.88701,-9.88777 -6.18718,-14.67247 -2.64469,-5.50136 -5.83374,-10.72457 -9.19239,-15.82151 -4.27926,-6.49402 -8.87168,-12.83367 -14.4073,-18.29639 -5.1056,-5.03837 -10.95126,-9.26854 -16.97057,-13.16986 -9.30928,-6.03366 -19.07633,-11.32135 -28.72621,-16.79379 -2.9979,-1.70011 -5.98581,-3.41884 -8.92722,-5.21491 -2.78328,-1.69951 -5.52444,-3.468 -8.22012,-5.3033 0.79816,2.43564 1.86753,4.78231 3.18198,6.98268 2.98018,4.98879 7.18507,9.16628 11.84404,12.63953 5.75531,4.29057 12.19948,7.54661 18.56155,10.87177 4.4284,2.31452 8.84919,4.68239 12.9047,7.6014 3.81643,2.74693 7.2786,5.96099 10.51822,9.36916 6.16045,6.48097 11.53754,13.67817 16.35184,21.2132 5.50577,8.61727 10.28185,17.67703 14.93763,26.78167 2.71962,5.31837 5.4234,10.71742 6.8059,16.52862 0.75684,3.18132 1.10735,6.45288 1.14905,9.72272 0.0861,6.75093 -1.1522,13.51623 -3.62392,19.79899 -0.25643,-2.33632 -0.5807,-4.66518 -0.97227,-6.98268 -0.85862,-5.08169 -2.34001,-10.27604 -4.44151,-14.98183 -0.79554,-1.7814 -1.43086,-3.37249 -2.18762,-5.17071 -0.29667,-0.70496 -0.56825,-1.4229 -0.7513,-2.16551 -0.27711,-1.12422 -0.34729,-2.30191 -0.17677,-3.44715 0.19271,-1.29429 0.68536,-2.52398 0.97227,-3.8007 0.47846,-2.12914 0.36847,-4.39302 -0.35356,-6.45235 -0.75355,-2.14926 -2.1818,-4.06786 -4.06586,-5.34749 -1.82266,-1.23793 -4.1097,-1.86285 -6.27557,-1.45841 -2.26569,0.42308 -4.25178,1.95585 -5.43589,3.93328 -0.99782,1.66634 -1.45799,3.62622 -1.4584,5.56847 -5.5e-4,2.56878 0.80572,5.14511 2.34229,7.20365 1.09905,1.4724 2.62416,2.70252 4.41941,3.09359 0.72361,0.15763 1.47432,0.17593 2.20971,0.0884 0.45618,-0.0543 0.91091,-0.14909 1.37002,-0.13259 0.45959,0.0165 0.92458,0.15211 1.28163,0.44195 0.30377,0.24659 0.51319,0.58825 0.70711,0.92807 1.40518,2.46236 2.30666,5.18629 2.91682,7.95495 0.84857,3.85043 1.14715,7.82163 0.88388,11.75565 -1.73152,-2.48592 -3.49954,-4.94642 -5.3033,-7.38043 -5.71882,-7.71706 -11.8075,-15.1793 -18.56155,-22.0087 -5.04274,-5.099 -10.47451,-9.85615 -16.52863,-13.70019 -5.61046,-3.56234 -11.69268,-6.30316 -17.67766,-9.19239 -9.54693,-4.60875 -18.89788,-9.62346 -28.01911,-15.02602 0.58586,2.03776 1.35605,4.02248 2.2981,5.92202 2.92178,5.89145 7.45394,10.87096 12.55114,15.02602 5.10806,4.16391 10.79308,7.55035 16.26346,11.22532 3.62259,2.43364 7.15631,4.99767 10.78338,7.42462 6.78016,4.53674 13.89295,8.59924 20.32932,13.6118 6.5834,5.12707 12.41072,11.22334 17.23572,18.03123 -0.82604,-0.54758 -1.67718,-1.05729 -2.54985,-1.52699 -3.13524,-1.6875 -6.55009,-2.85407 -10.0625,-3.4375 2.09176,1.5561 4.11519,3.20404 6.0625,4.9375 2.61169,2.32487 5.10263,4.8231 7.0625,7.71875 1.76061,2.60125 3.07511,5.50922 3.8125,8.5625 0.50418,2.08763 0.7384,4.2317 0.875,6.375 0.39015,6.12141 0.19538,11.45582 -0.98212,17.47557 l 12.34387,9.03541 c 0.41649,0.21614 0.69288,0.21617 1.17494,-0.0178 0.35958,-0.23822 0.66265,-0.55545 0.9131,-0.90661 0.46784,-0.65596 0.75205,-1.42126 1.06067,-2.16551 0.92777,-2.23738 2.11852,-4.36184 3.48954,-6.35857 1.16691,-1.69947 2.46516,-3.30843 3.875,-4.8125 3.0408,-3.24405 6.57515,-5.97688 10,-8.8125 6.27764,-5.1976 12.26408,-10.81759 17.1875,-17.3125 3.62418,-4.78096 6.64564,-10.00324 9.1875,-15.4375 2.67069,-5.70967 4.81871,-11.66369 6.40847,-17.76333 -0.82332,1.01423 -1.65897,2.01846 -2.5067,3.01239 -2.52443,2.9598 -5.15566,5.82786 -7.86656,8.61787 -4.08001,4.19907 -8.33874,8.21974 -12.55114,12.28598 -5.23603,5.05434 -10.41311,10.1927 -15.02602,15.82151 -5.42641,6.62147 -10.04847,13.90148 -13.73237,21.62926 1.16977,-3.50176 2.30296,-7.01574 3.39932,-10.54118 1.4279,-4.59153 2.79576,-9.21247 3.6875,-13.9375 0.73421,-3.89036 1.14336,-7.86257 0.875,-11.8125 -0.088,-1.29479 -0.24838,-2.58342 -0.375,-3.875 -0.28166,-2.87302 -0.39353,-5.79729 0.1875,-8.625 0.40627,-1.97723 1.14335,-3.86873 1.875,-5.75 3.67966,-9.46143 7.30578,-18.94391 11.0625,-28.375 3.93235,-9.87198 8.00841,-19.68929 11.67048,-29.66469 1.75763,-4.78776 3.42238,-9.6208 4.5962,-14.58408 0.85244,-3.6044 1.44375,-7.27052 1.76777,-10.96015 -1.14309,1.91292 -2.30696,3.81342 -3.49134,5.70105 z" />
          <path
             style="fill:#ffffff;stroke:none;stroke-width:1px;stroke-linecap:butt;stroke-linejoin:miter;stroke-opacity:1"
             d="m 688.58942,631.35801 c -0.3138,2.27963 -0.6906,4.5509 -1.14905,6.8059 -0.31429,1.54591 -0.66703,3.0846 -0.92808,4.64039 -0.30142,1.79641 -0.47933,3.63966 -0.17677,5.43588 0.0879,0.52201 0.21934,1.04538 0.48613,1.5026 0.19015,0.32587 0.44715,0.61254 0.75039,0.83702 0.1915,0.13585 0.43009,0.20392 0.66445,0.18954 0.23435,-0.0144 0.46284,-0.1111 0.63629,-0.26934 0.1504,-0.13721 0.25727,-0.3157 0.34375,-0.5 0.21217,-0.45215 0.31188,-0.94748 0.40847,-1.4375 0.12016,-0.60958 0.2383,-1.21971 0.37863,-1.82496 0.24232,-1.04509 0.55043,-2.07392 0.88389,-3.09359 0.34485,-1.0545 0.71763,-2.10214 0.97226,-3.18198 0.34921,-1.48095 0.47208,-3.00451 0.70711,-4.50781 0.15533,-0.9935 0.35976,-1.97864 0.57452,-2.96101 0.33284,-1.5225 0.69157,-3.04479 0.83969,-4.59619 0.0855,-0.8956 0.1003,-1.79793 0.0442,-2.69585 0.87538,-0.0359 1.74798,-0.13941 2.60746,-0.30936 1.73217,-0.34252 3.43948,-0.97271 4.81717,-2.07712 1.94077,-1.55579 3.09616,-4.01065 3.18198,-6.49655 0.0645,-1.86845 -0.44987,-3.74584 -1.41422,-5.34749 -1.08058,-1.7947 -2.737,-3.24998 -4.68458,-4.02167 -1.96489,-0.77855 -4.17666,-0.84861 -6.23138,-0.35356 -1.85824,0.44771 -3.62309,1.36401 -4.94975,2.74004 -0.89405,0.92732 -1.57985,2.0535 -1.99854,3.27167 -0.46581,1.35525 -0.59992,2.81362 -0.47633,4.24134 0.12894,1.48955 0.54281,2.96896 1.32583,4.24264 0.7571,1.23152 1.85436,2.25152 3.13778,2.91684 -0.18745,2.2897 -0.43801,4.57423 -0.7513,6.85012 z"
             id="path1152" />
          <path
             style="fill:#000000;stroke:#000000;stroke-width:1px;stroke-linecap:butt;stroke-linejoin:miter;stroke-opacity:1"
             d="m 665.21875,664.3125 c 0.61623,0.0504 1.23996,0.008 1.84375,-0.125 1.28898,-0.28418 2.45664,-0.97278 3.5,-1.78125 0.35613,-0.27595 0.70205,-0.56831 1,-0.90625 0.11401,-0.12931 0.2214,-0.26568 0.35189,-0.37833 0.13048,-0.11266 0.28876,-0.20175 0.46061,-0.21542 0.11367,-0.009 0.22916,0.0157 0.33147,0.0661 0.10231,0.0503 0.19153,0.12578 0.26228,0.2152 0.0893,0.1129 0.14915,0.24714 0.18698,0.38603 0.0378,0.1389 0.0543,0.28278 0.063,0.42647 0.0673,1.10943 -0.33024,2.21524 -0.96875,3.125 -0.73625,1.04901 -1.81913,1.87683 -3.0625,2.1875 -0.9509,0.2376 -1.96196,0.16891 -2.90625,-0.0937 -0.8487,-0.23603 -1.65475,-0.62759 -2.35938,-1.15625 -0.35648,-0.26746 -0.69316,-0.57734 -0.90625,-0.96875 -0.043,-0.079 -0.0809,-0.1614 -0.10292,-0.24859 -0.022,-0.0872 -0.0277,-0.17966 -0.006,-0.26704 0.0221,-0.0911 0.0731,-0.17401 0.13968,-0.24 0.0666,-0.066 0.14839,-0.11553 0.23532,-0.15062 0.25925,-0.10464 0.55053,-0.0802 0.82812,-0.0469 0.37162,0.0445 0.7417,0.10189 1.10938,0.17188 z"
             id="path1116" />
          <path
             style="fill:#000000;stroke:#000000;stroke-width:1px;stroke-linecap:butt;stroke-linejoin:miter;stroke-opacity:1"
             d="m 695.32903,618.74053 c 0.76143,-0.23534 1.48684,-0.58683 2.14342,-1.03856 0.5916,-0.40703 1.12432,-0.89233 1.67938,-1.34793 0.21877,-0.17957 0.4451,-0.35699 0.70711,-0.46403 0.11934,-0.0487 0.24569,-0.0824 0.3744,-0.0895 0.12872,-0.007 0.26,0.013 0.3769,0.0674 0.10888,0.0506 0.20311,0.12976 0.27963,0.22227 0.0765,0.0925 0.13588,0.19825 0.18441,0.30806 0.15817,0.35791 0.20196,0.75856 0.17677,1.14905 -0.0426,0.66047 -0.27852,1.30227 -0.64081,1.85615 -0.36155,0.55276 -0.84642,1.02 -1.39212,1.39212 -1.14673,0.78197 -2.57513,1.14061 -3.95538,0.99437 -1.06452,-0.11279 -2.08873,-0.51663 -2.98311,-1.10486 -0.34645,-0.22786 -0.67553,-0.48399 -0.96713,-0.77882 -0.0678,-0.0685 -0.13375,-0.13944 -0.18751,-0.2194 -0.0538,-0.08 -0.0951,-0.16969 -0.10937,-0.26498 -0.0151,-0.10109 0.001,-0.20587 0.0408,-0.30004 0.0397,-0.0942 0.10247,-0.17787 0.17791,-0.24683 0.10445,-0.0955 0.23285,-0.16296 0.3682,-0.20433 0.13534,-0.0414 0.27763,-0.0572 0.41916,-0.0567 0.28305,0.001 0.56123,0.0667 0.83999,0.11576 0.81389,0.14337 1.6522,0.14704 2.46731,0.0108 z"
             id="path1120" />
          <path
             id="path1132"
             style="fill:#ffffff;stroke:none;stroke-width:1px;stroke-linecap:butt;stroke-linejoin:miter;stroke-opacity:1"
             d="m 673.76562,620.73437 c 0.0929,0.1527 0.19849,0.2987 0.3259,0.42404 0.1274,0.12534 0.30622,0.26978 0.46166,0.358 0.32807,0.1862 0.73941,0.2514 1.00795,0.088 0.26854,-0.16344 0.33891,-0.69576 0.3777,-1.00773 0.76494,-5.75324 1.53466,-11.50585 2.30915,-17.25782 1.64595,-12.22417 3.31417,-24.44996 5.50202,-36.58886 2.93434,-16.28063 6.79816,-32.37655 10.5,-48.5 1.28216,-5.58446 2.54511,-11.17333 3.78883,-16.76647 -1.38316,2.27527 -2.72967,4.57283 -4.03883,6.89147 -3.06582,5.42987 -5.92548,10.97299 -8.8125,16.5 -3.03291,5.8063 -6.09881,11.60032 -8.8125,17.5625 -2.24814,4.93933 -4.25924,10.01158 -5.50744,15.29297 -0.80962,3.42567 -1.29401,6.92234 -1.59099,10.42983 -0.6172,7.2895 -0.42776,14.62975 0.17677,21.92031 0.52977,6.389 1.37726,12.74743 2.2981,19.09188 0.49437,3.40613 1.00998,6.80917 1.5468,10.20886 0.057,0.47742 0.21754,0.94221 0.46738,1.35302 z" />
          <path
             style="fill:#ffffff;stroke:none;stroke-width:1px;stroke-linecap:butt;stroke-linejoin:miter;stroke-opacity:1"
             d="M 620.0625,536.6875 C 620.2161,531.27628 619.71674,525.86574 619,520.5 c -0.44998,-3.36869 -0.98818,-6.73666 -1.9375,-10 -0.78433,-2.6962 -1.85003,-5.31591 -3.25,-7.75 -1.88962,-3.28544 -4.37571,-6.20862 -7.1875,-8.75 -5.62134,-5.08073 -12.59292,-8.65366 -20,-10.25 2.27368,4.10259 4.54451,8.20676 6.8125,12.3125 4.18474,7.57563 8.35989,15.15682 12.625,22.6875 4.44465,7.84768 8.98678,15.64015 13.625,23.375 0.1983,-1.80645 0.32344,-3.62093 0.375,-5.4375 z"
             id="path1140" />
        </g>
      </g>
    </g>
  </g>
</svg>
